<?xml version="1.0" encoding="utf-8"?>
<!-- Generator: Adobe Illustrator 27.6.1, SVG Export Plug-In . SVG Version: 6.00 Build 0)  -->
<svg version="1.1" id="Capa_1" xmlns="http://www.w3.org/2000/svg" xmlns:xlink="http://www.w3.org/1999/xlink" x="0px" y="0px"
	 viewBox="0 0 57 57" style="enable-background:new 0 0 57 57;" xml:space="preserve">
<style type="text/css">
	.st0{display:none;fill:#ECF0F1;}
	.st1{fill:#04EDAE;}
</style>
<rect class="st0" width="57" height="57"/>
<g>
	<circle class="st1" cx="12" cy="34.2" r="9.2"/>
	<path class="st1" d="M12,45.1c-6,0-10.9-4.9-10.9-10.9S6,23.3,12,23.3S23,28.2,23,34.2S18.1,45.1,12,45.1z M12,26.7
		c-4.2,0-7.6,3.4-7.6,7.6s3.4,7.6,7.6,7.6s7.6-3.4,7.6-7.6S16.2,26.7,12,26.7z"/>
</g>
<g>
	<circle class="st1" cx="40.6" cy="34.2" r="9.2"/>
	<path class="st1" d="M40.6,45.1c-6,0-10.9-4.9-10.9-10.9s4.9-10.9,10.9-10.9s10.9,4.9,10.9,10.9S46.6,45.1,40.6,45.1z M40.6,26.7
		c-4.2,0-7.6,3.4-7.6,7.6s3.4,7.6,7.6,7.6s7.6-3.4,7.6-7.6S44.8,26.7,40.6,26.7z"/>
</g>
<path class="st1" d="M2.8,35.1c-0.9,0-1.7-0.8-1.7-1.7c0-13,10.5-23.5,23.5-23.5c0.9,0,1.7,0.8,1.7,1.7c0,0.9-0.8,1.7-1.7,1.7
	c-11.1,0-20.2,9-20.2,20.2C4.5,34.3,3.7,35.1,2.8,35.1z"/>
<path class="st1" d="M31.4,35.1c-0.9,0-1.7-0.8-1.7-1.7c0-13,10.5-23.5,23.5-23.5c0.9,0,1.7,0.8,1.7,1.7c0,0.9-0.8,1.7-1.7,1.7
	c-11.1,0-20.2,9-20.2,20.2C33,34.3,32.3,35.1,31.4,35.1z"/>
</svg>
